<svg xmlns="http://www.w3.org/2000/svg" viewBox="0 0 480 80" width="480" height="80">
  <defs>
    <linearGradient id="bg" x1="0" y1="0" x2="1" y2="0">
      <stop offset="0%" stop-color="#3B1E08"/>
      <stop offset="100%" stop-color="#5A2D0C"/>
    </linearGradient>
  </defs>
  <!-- Background -->
  <rect width="480" height="80" rx="14" fill="url(#bg)"/>
  <!-- KakaoTalk icon circle -->
  <circle cx="44" cy="40" r="22" fill="#FEE500"/>
  <!-- KakaoTalk speech bubble icon -->
  <path d="M44 24c-8.8 0-16 5.7-16 12.7 0 4.5 3 8.4 7.5 10.6l-1.5 5.5c-.1.4.4.7.7.5l6.3-4.2c1 .1 2 .2 3 .2 8.8 0 16-5.7 16-12.7S52.8 24 44 24z" fill="#3B1E08"/>
  <!-- "제휴문의" label -->
  <text x="80" y="30" font-family="'Apple SD Gothic Neo','Malgun Gothic',sans-serif" font-size="14" font-weight="600" fill="#FEE500" letter-spacing="1">제휴문의</text>
  <!-- "카톡" label -->
  <text x="80" y="56" font-family="'Apple SD Gothic Neo','Malgun Gothic',sans-serif" font-size="16" font-weight="700" fill="#ffffff">카톡</text>
  <!-- "besta12" ID - prominent -->
  <rect x="120" y="40" width="130" height="32" rx="8" fill="#FEE500"/>
  <text x="185" y="62" font-family="'Courier New',monospace" font-size="20" font-weight="900" fill="#3B1E08" text-anchor="middle" letter-spacing="1.5">besta12</text>
  <!-- Right side arrow/CTA -->
  <rect x="280" y="18" width="180" height="44" rx="10" fill="none" stroke="#FEE500" stroke-width="1.5" stroke-dasharray="4,3"/>
  <text x="370" y="36" font-family="'Apple SD Gothic Neo','Malgun Gothic',sans-serif" font-size="12" font-weight="500" fill="#ccaa66" text-anchor="middle">광고·입점·협업</text>
  <text x="370" y="54" font-family="'Apple SD Gothic Neo','Malgun Gothic',sans-serif" font-size="13" font-weight="700" fill="#ffffff" text-anchor="middle">카카오톡으로 문의하세요</text>
</svg>